<svg width="33" height="33" viewBox="0 0 33 33" fill="none" xmlns="http://www.w3.org/2000/svg">
<path d="M32.8089 17.6681H30.4977C30.4518 17.3551 30.2949 17.069 30.0556 16.862C29.8164 16.655 29.5107 16.5408 29.1944 16.5402H17.8912V15.8105C19.2923 15.4328 20.6621 14.9472 21.9882 14.358C24.147 13.4024 27.1403 11.7386 29.1418 9.23973C29.2593 9.09303 29.3319 8.91539 29.3505 8.72832C29.3692 8.54125 29.3333 8.35278 29.247 8.18573L31.0933 6.34108C31.1113 6.3234 31.1256 6.30233 31.1354 6.27908C31.1452 6.25584 31.1503 6.23088 31.1504 6.20565C31.1506 6.18043 31.1457 6.15542 31.1361 6.13209C31.1265 6.10876 31.1124 6.08756 31.0945 6.06971C31.0767 6.05186 31.0555 6.03772 31.0322 6.0281C31.0089 6.01849 30.9839 6.01358 30.9586 6.01367C30.9334 6.01377 30.9085 6.01885 30.8852 6.02864C30.8619 6.03843 30.8409 6.05272 30.8232 6.0707L29.0077 7.88447C28.8068 7.71512 28.5502 7.6261 28.2876 7.63458C28.0249 7.64305 27.7747 7.74841 27.585 7.93037C24.6108 10.8146 19.1356 13.0244 17.8913 13.5034V12.1047C17.8913 12.0796 17.8864 12.0548 17.8768 12.0316C17.8672 12.0084 17.8531 11.9873 17.8353 11.9696C17.8176 11.9518 17.7965 11.9377 17.7733 11.9281C17.7501 11.9185 17.7253 11.9136 17.7002 11.9136H0.191104C0.165991 11.9136 0.141125 11.9185 0.117927 11.9281C0.0947284 11.9377 0.0736527 11.9518 0.0559046 11.9696C0.0381565 11.9874 0.0240839 12.0085 0.0144915 12.0317C0.00489898 12.0549 -2.5311e-05 12.0798 9.78299e-08 12.1049V23.9896C-8.37136e-06 24.0147 0.00492889 24.0396 0.0145297 24.0628C0.0241306 24.086 0.0382068 24.107 0.0559541 24.1248C0.0737014 24.1425 0.0947719 24.1566 0.117961 24.1662C0.141151 24.1758 0.166005 24.1807 0.191104 24.1807H17.7001C17.7252 24.1807 17.75 24.1758 17.7732 24.1662C17.7964 24.1566 17.8175 24.1425 17.8352 24.1248C17.8529 24.107 17.867 24.086 17.8766 24.0628C17.8862 24.0396 17.8912 24.0147 17.8912 23.9896V22.0308C19.1098 22.2662 25.0236 23.4992 28.5102 25.8658C28.6854 25.9843 28.892 26.0474 29.1035 26.047C29.1937 26.0469 29.2836 26.0356 29.371 26.0133C29.5909 25.9574 29.7869 25.832 29.9298 25.6557C30.3867 25.9502 31.2234 26.5375 31.3945 26.8799C31.4176 26.9245 31.4574 26.9582 31.5051 26.9738C31.5529 26.9893 31.6049 26.9854 31.6498 26.9629C31.6947 26.9405 31.729 26.9012 31.7452 26.8537C31.7614 26.8062 31.7583 26.7542 31.7365 26.7089C31.5003 26.2366 30.4937 25.5622 30.1098 25.3167C30.1642 25.1373 30.1658 24.9461 30.1145 24.7658C30.0631 24.5855 29.961 24.4238 29.8203 24.3C27.4064 22.1751 24.2421 21.0494 22.0127 20.4793C20.6599 20.131 19.2818 19.8896 17.8912 19.7574V19.1779H29.1944C29.511 19.1783 29.8172 19.0645 30.0567 18.8573C30.2961 18.6501 30.4528 18.3635 30.4979 18.05H32.8089C32.8596 18.05 32.9082 18.0299 32.944 17.994C32.9799 17.9582 33 17.9096 33 17.8589C33 17.8082 32.9799 17.7596 32.944 17.7238C32.9082 17.6879 32.8596 17.6678 32.8089 17.6678V17.6681ZM11.811 17.7699C11.8272 17.8006 11.8348 17.8352 11.8329 17.8699C11.831 17.9046 11.8196 17.9381 11.8001 17.9668L9.10362 21.9283C9.07457 21.9689 9.03079 21.9965 8.98165 22.0052C8.93251 22.0139 8.88191 22.0031 8.84066 21.975C8.79941 21.9469 8.77078 21.9038 8.76091 21.8549C8.75103 21.806 8.76068 21.7551 8.7878 21.7132L11.281 18.0503H7.76725C7.73184 18.0504 7.69713 18.0405 7.66698 18.022C7.63683 18.0034 7.61243 17.9769 7.59649 17.9453C7.58056 17.9136 7.57372 17.8782 7.57674 17.8429C7.57976 17.8077 7.59251 17.7739 7.61359 17.7455L10.5053 13.8417C10.5357 13.8016 10.5807 13.775 10.6305 13.7678C10.6804 13.7606 10.7311 13.7734 10.7715 13.8034C10.812 13.8334 10.839 13.8781 10.8467 13.9279C10.8544 13.9777 10.8421 14.0285 10.8125 14.0693L8.14688 17.6681H11.6422C11.677 17.6682 11.711 17.6776 11.7407 17.6956C11.7705 17.7135 11.7948 17.7392 11.811 17.7699Z" fill="black"/>
</svg>
