<svg width="33" height="33" viewBox="0 0 33 33" fill="none" xmlns="http://www.w3.org/2000/svg">
<path d="M25.2334 32.5166C25.2334 32.6448 25.2843 32.7678 25.375 32.8584C25.4656 32.9491 25.5886 33 25.7168 33C25.845 33 25.968 32.9491 26.0586 32.8584C26.1493 32.7678 26.2002 32.6448 26.2002 32.5166V31.3887H25.2334V32.5166ZM24.0732 26.7255V29.2939C24.0736 29.593 24.1925 29.8797 24.404 30.0911C24.6154 30.3026 24.9021 30.4215 25.2012 30.4219H26.4902C26.7893 30.4215 27.076 30.3026 27.2874 30.0911C27.4989 29.8797 27.6178 29.593 27.6182 29.2939V22.6927C26.7343 24.272 25.5262 25.6464 24.0732 26.7255ZM6.7998 32.5166C6.7998 32.6448 6.85073 32.7678 6.94139 32.8584C7.03204 32.9491 7.155 33 7.2832 33C7.41141 33 7.53436 32.9491 7.62502 32.8584C7.71567 32.7678 7.7666 32.6448 7.7666 32.5166V31.3887H6.7998V32.5166ZM5.38184 22.6927V29.2939C5.38218 29.593 5.50112 29.8797 5.71258 30.0911C5.92403 30.3026 6.21072 30.4215 6.50977 30.4219H7.79883C8.09787 30.4215 8.38456 30.3026 8.59602 30.0911C8.80747 29.8797 8.92642 29.593 8.92676 29.2939V26.7255C7.47382 25.6464 6.26572 24.272 5.38184 22.6927ZM11.8271 13.3418C11.254 14.1901 10.9225 15.1783 10.8683 16.2007C10.814 17.223 11.0391 18.2408 11.5194 19.1449C11.9996 20.0491 12.7169 20.8054 13.5944 21.3329C14.4718 21.8603 15.4762 22.139 16.5 22.139C17.5238 22.139 18.5282 21.8603 19.4056 21.3329C20.2831 20.8054 21.0004 20.0491 21.4806 19.1449C21.9609 18.2408 22.186 17.223 22.1317 16.2007C22.0775 15.1783 21.746 14.1901 21.1729 13.3418V13.376C21.1715 14.1019 20.8824 14.7976 20.3689 15.3107C19.8554 15.8238 19.1595 16.1124 18.4336 16.1133H14.5664C13.8402 16.1124 13.1439 15.8236 12.6304 15.31C12.1169 14.7965 11.828 14.1003 11.8271 13.374V13.3418Z" fill="black"/>
<path d="M28.2627 16.5004C28.2627 11.6741 25.3404 7.51816 21.1729 5.70703V8.59582C22.5461 9.40859 23.6843 10.5648 24.4753 11.9507C25.2664 13.3366 25.6831 14.9046 25.6846 16.5004C25.6846 21.5651 21.5641 25.6849 16.5 25.6849C11.4359 25.6849 7.31543 21.5651 7.31543 16.5004C7.31688 14.9046 7.73362 13.3366 8.52467 11.9507C9.31572 10.5648 10.4539 9.40859 11.8271 8.59582V5.70703C7.65961 7.51816 4.7373 11.6741 4.7373 16.5004C4.7373 22.9863 10.0141 28.263 16.5 28.263C22.9859 28.263 28.2627 22.9863 28.2627 16.5004Z" fill="black"/>
<path d="M16.5 23.1068C15.1936 23.1069 13.9165 22.7197 12.8302 21.994C11.7439 21.2684 10.8972 20.2369 10.397 19.0301C9.89688 17.8232 9.7658 16.4952 10.0204 15.2139C10.2749 13.9325 10.9037 12.7554 11.8271 11.8314V9.73926C10.386 10.7354 9.301 12.1661 8.73037 13.8225C8.15974 15.4789 8.13339 17.2742 8.65516 18.9467C9.17693 20.6191 10.2195 22.081 11.6308 23.119C13.042 24.1571 14.7481 24.7169 16.5 24.7169C18.2519 24.7169 19.958 24.1571 21.3692 23.119C22.7805 22.081 23.8231 20.6191 24.3448 18.9467C24.8666 17.2742 24.8403 15.4789 24.2696 13.8225C23.699 12.1661 22.614 10.7354 21.1729 9.73926V11.8314C22.0963 12.7554 22.7251 13.9325 22.9796 15.2139C23.2342 16.4952 23.1031 17.8232 22.603 19.0301C22.1028 20.2369 21.2561 21.2684 20.1698 21.994C19.0835 22.7197 17.8064 23.1069 16.5 23.1068Z" fill="black"/>
<path d="M14.5664 15.1465H18.4336C18.9035 15.1458 19.3539 14.9588 19.6862 14.6266C20.0184 14.2943 20.2054 13.8439 20.2061 13.374V1.77246C20.2054 1.30258 20.0184 0.852148 19.6862 0.519895C19.3539 0.187642 18.9035 0.00068197 18.4336 0L14.5664 0C14.0965 0.00068197 13.6461 0.187642 13.3138 0.519895C12.9816 0.852148 12.7946 1.30258 12.7939 1.77246V13.374C12.7946 13.8439 12.9816 14.2943 13.3138 14.6266C13.6461 14.9588 14.0965 15.1458 14.5664 15.1465ZM14.8693 7.1543L16.9512 5.07182C17.0428 4.98643 17.164 4.93994 17.2892 4.94215C17.4145 4.94436 17.534 4.99509 17.6225 5.08366C17.7111 5.17223 17.7618 5.29172 17.764 5.41695C17.7662 5.54218 17.7198 5.66338 17.6344 5.75502L16.3795 7.01057H17.7891C17.8847 7.01052 17.9783 7.03887 18.0578 7.09203C18.1374 7.14518 18.1994 7.22075 18.236 7.30916C18.2725 7.39757 18.2821 7.49484 18.2633 7.58867C18.2446 7.68249 18.1984 7.76864 18.1307 7.83621L15.8922 10.0747C15.7998 10.1557 15.6801 10.1985 15.5573 10.1944C15.4345 10.1903 15.3179 10.1396 15.2311 10.0526C15.1443 9.96562 15.094 9.84885 15.0902 9.72604C15.0865 9.60322 15.1296 9.48359 15.2109 9.39147L16.6244 7.97736H15.2109C15.1154 7.97728 15.022 7.94888 14.9426 7.89576C14.8632 7.84264 14.8013 7.76717 14.7647 7.6789C14.7282 7.59062 14.7186 7.49349 14.7372 7.39978C14.7558 7.30606 14.8018 7.21997 14.8693 7.15236V7.1543Z" fill="black"/>
</svg>
