<svg width="33" height="33" viewBox="0 0 33 33" fill="none" xmlns="http://www.w3.org/2000/svg">
<path d="M19.2675 17.7261C18.707 17.1656 17.8662 17.1656 17.3057 17.7261L14.7834 20.2484L12.6815 18.1465L15.2038 15.6242C15.7643 15.0637 15.7643 14.2229 15.2038 13.6624C14.6433 13.1019 13.8025 13.1019 13.242 13.6624L10.7197 16.1847L9.80892 15.2739C9.52866 14.9936 9.17834 14.8535 8.82803 14.8535C8.47771 14.8535 8.12739 14.9936 7.84713 15.2739L3.92357 19.1975C1.5414 21.5796 1.26115 25.2229 3.0828 27.9554L0.420382 30.6178C-0.140127 31.1783 -0.140127 32.0191 0.420382 32.5796C0.700637 32.8599 1.05096 33 1.40127 33C1.75159 33 2.10191 32.8599 2.38217 32.5796L5.04459 29.9172C6.16561 30.6879 7.49682 31.0382 8.89809 31.0382C10.7197 31.0382 12.4713 30.3376 13.8025 29.0064L17.7261 25.0828C18.2866 24.5223 18.2866 23.6815 17.7261 23.121L16.8153 22.2102L19.3376 19.6879C19.828 19.1274 19.828 18.2166 19.2675 17.7261ZM32.5096 0.420382C31.949 -0.140127 31.1083 -0.140127 30.5478 0.420382L27.8854 3.0828C26.7643 2.3121 25.4331 1.96178 24.0318 1.96178C22.2102 1.96178 20.4586 2.66242 19.1274 3.99363L15.2038 7.9172C14.9236 8.19745 14.7834 8.54777 14.7834 8.89809C14.7834 9.24841 14.9236 9.59873 15.2038 9.87898L23.051 17.7261C23.3312 18.0064 23.6815 18.1465 24.0318 18.1465C24.3822 18.1465 24.7325 18.0064 25.0127 17.7261L28.9363 13.8025C31.3185 11.4204 31.5987 7.77707 29.7771 5.04459L32.4395 2.38217C33.0701 1.82166 33.0701 0.910828 32.5096 0.420382Z" fill="black"/>
</svg>
