<svg width="33" height="33" viewBox="0 0 33 33" fill="none" xmlns="http://www.w3.org/2000/svg">
<g clip-path="url(#clip0_1716_2803)">
<path d="M33 19.0385C33 15.8146 30.8525 13.1103 27.9231 12.1998V11.4231C27.9231 5.12431 22.7988 0 16.5 0C10.2012 0 5.07692 5.12431 5.07692 11.4231V12.1998C2.14754 13.1103 0 15.8129 0 19.0385C0 23.0035 3.22723 26.2308 7.19231 26.2308H8.03846C9.67154 26.2308 11 24.9023 11 23.2692V14.8077C11 13.1746 9.67154 11.8462 8.03846 11.8462H7.61538V11.4231C7.61538 6.52385 11.6008 2.53846 16.5 2.53846C21.3992 2.53846 25.3846 6.52385 25.3846 11.4231V11.8462H24.9615C23.3285 11.8462 22 13.1746 22 14.8077V23.2692C22 24.9023 23.3285 26.2308 24.9615 26.2308H25.2222C24.6451 28.6508 22.4789 30.4615 19.8846 30.4615H16.1142C15.4135 30.4615 14.8449 31.0302 14.8449 31.7308C14.8449 32.4314 15.4135 33 16.1142 33H19.8846C23.9935 33 27.3528 29.8895 27.8283 25.9058C30.8068 25.0258 33 22.2978 33 19.0385Z" fill="black"/>
</g>
<defs>
<clipPath id="clip0_1716_2803">
<rect width="33" height="33" fill="white"/>
</clipPath>
</defs>
</svg>
