<svg width="33" height="33" viewBox="0 0 33 33" fill="none" xmlns="http://www.w3.org/2000/svg">
<path d="M29.0125 14.7125L17.4625 3.1625C17.1875 2.8875 16.9125 2.75 16.5 2.75H4.125C3.3 2.75 2.75 3.3 2.75 4.125V16.5C2.75 16.9125 2.8875 17.1875 3.1625 17.4625L14.7125 29.0125C16.3625 30.6625 18.975 30.6625 20.4875 29.0125L29.0125 20.4875C30.6625 18.975 30.6625 16.3625 29.0125 14.7125ZM10.3125 12.375C9.2125 12.375 8.25 11.4125 8.25 10.3125C8.25 9.2125 9.2125 8.25 10.3125 8.25C11.4125 8.25 12.375 9.2125 12.375 10.3125C12.375 11.4125 11.4125 12.375 10.3125 12.375Z" fill="black"/>
</svg>
