<svg width="49" height="46" viewBox="0 0 49 46" fill="none" xmlns="http://www.w3.org/2000/svg">
<path d="M44.7396 23.5122V1.4267C44.7396 0.638781 44.1008 0 43.3129 0H5.08855C4.30063 0 3.66185 0.638781 3.66185 1.4267V25.2728C2.97361 25.3731 2.30078 25.6403 1.70556 26.0822C-0.17084 27.4127 -0.614639 30.3903 0.957109 32.2267L7.38325 40.0171C11.3611 44.6726 15.5867 45.243 21.8685 45.243C27.2593 45.243 29.6693 45.2668 34.3675 44.1963L38.9422 43.1021C39.684 44.138 40.8616 44.809 42.1855 44.809H44.4391C46.6783 44.809 48.5 42.8899 48.5 40.531V27.7774C48.5001 25.525 46.8388 23.6749 44.7396 23.5122ZM38.3269 26.447L36.4259 25.4815C33.3004 23.9039 29.6868 23.8455 26.5119 25.3215C25.6457 25.6622 23.7564 26.8053 22.7765 26.7671H16.1802C13.9922 26.7671 12.2121 28.5471 12.2121 30.7352V31.7757C12.1998 31.7627 12.1869 31.7504 12.1749 31.7373L7.46438 26.6243C7.17933 26.3149 6.85908 26.056 6.51534 25.8483V11.6936H18.1908V16.9235C18.1908 17.7114 18.8296 18.3502 19.6175 18.3502H28.6201C29.408 18.3502 30.0468 17.7114 30.0468 16.9235V11.6936H41.8863V23.5121C40.2193 23.6409 38.8293 24.8334 38.3269 26.447ZM21.0441 11.6936H27.1933V15.4968H21.0441V11.6936ZM41.8862 8.84021H30.0468V2.8534H41.8863V8.84021H41.8862ZM27.1934 2.8534V8.84031H21.0442V2.8534H27.1934ZM18.1907 2.8534V8.84031H6.51525V2.8534H18.1907ZM33.7053 41.4207C29.3653 42.4147 26.7515 42.3745 21.9197 42.3745C16.0227 42.3745 13.1734 42.2792 9.58455 38.2013L3.15841 30.4109C2.04064 28.9554 4.06522 27.2371 5.3658 28.5575L10.0763 33.6706C11.3212 34.9842 12.8878 35.7072 14.8187 35.7497H27.8786C28.6665 35.7497 29.3053 35.1109 29.3053 34.323C29.3053 33.5351 28.6665 32.8963 27.8786 32.8963H15.0654V30.735C15.0654 30.1204 15.5654 29.6203 16.1801 29.6203H22.7764C24.2624 29.7267 26.4073 28.4859 27.7148 27.9088C30.0926 26.8032 32.7991 26.847 35.1369 28.0269L38.1248 29.5446V40.3635L33.7053 41.4207ZM45.6467 40.5309C45.6467 41.3165 45.105 41.9555 44.4392 41.9555H42.1856C41.5198 41.9555 40.9782 41.3165 40.9782 40.5309V27.7774C40.9782 26.9918 41.5199 26.3527 42.1856 26.3527H44.4392C45.105 26.3527 45.6467 26.9917 45.6467 27.7774V40.5309Z" fill="black"/>
</svg>
