<svg width="49" height="49" viewBox="0 0 49 49" fill="none" xmlns="http://www.w3.org/2000/svg">
<g clip-path="url(#clip0_1203_14475)">
<path d="M24.2338 48.5003C24.0742 48.5003 23.9125 48.4619 23.767 48.3851L0.543604 36.2601C0.210167 36.0863 0 35.7408 0 35.3649V12.6305C0 12.2809 0.181875 11.9555 0.478937 11.7716C0.776 11.5878 1.14985 11.5716 1.46106 11.7272L24.6845 23.347C25.026 23.5188 25.2422 23.8684 25.2422 24.2503V47.4899C25.2422 47.8435 25.0583 48.1709 24.7552 48.3548C24.5976 48.4518 24.4157 48.5003 24.2338 48.5003ZM2.02083 34.7526L23.2234 45.8227V24.8747L2.02083 14.2654V34.7526Z" fill="#222222"/>
<path d="M24.2663 48.4998C24.0844 48.4998 23.9025 48.4513 23.7429 48.3543C23.4418 48.1705 23.2559 47.8431 23.2559 47.4894V24.2498C23.2559 23.8679 23.4721 23.5183 23.8136 23.3465L47.0371 11.7267C47.3463 11.5691 47.7221 11.5853 48.0192 11.7712C48.3183 11.9551 48.5002 12.2805 48.5002 12.6301V35.3644C48.5002 35.7403 48.29 36.0859 47.9566 36.2597L24.7331 48.3847C24.5876 48.4615 24.4259 48.4998 24.2663 48.4998ZM25.2767 24.8743V45.8222L46.4793 34.7521V14.2649L25.2767 24.8743ZM47.4897 35.3644H47.51H47.4897Z" fill="#222222"/>
<path d="M1.01056 13.6406C0.638731 13.6406 0.283064 13.4365 0.10523 13.0829C-0.145353 12.5837 0.0587513 11.9775 0.557897 11.7269L23.8137 0.10707C24.0986 -0.0343881 24.434 -0.0343881 24.717 0.10707L47.9404 11.7269C48.4395 11.9775 48.6416 12.5837 48.393 13.0829C48.1425 13.582 47.5382 13.7821 47.0371 13.5355L24.2663 2.14003L1.46323 13.5335C1.31773 13.6063 1.16415 13.6406 1.01056 13.6406Z" fill="#222222"/>
<path d="M36.375 30.3122C35.8172 30.3122 35.3645 29.8595 35.3645 29.3018V18.8116L12.6989 7.4707C12.1997 7.22213 11.9976 6.61386 12.2482 6.11472C12.4988 5.61557 13.1051 5.41551 13.6042 5.66205L36.8276 17.2818C37.1691 17.4556 37.3854 17.8052 37.3854 18.1872V29.3018C37.3854 29.8595 36.9327 30.3122 36.375 30.3122Z" fill="#222222"/>
</g>
<defs>
<clipPath id="clip0_1203_14475">
<rect width="48.5" height="48.5" fill="white"/>
</clipPath>
</defs>
</svg>
