<svg width="17" height="19" viewBox="0 0 17 19" fill="none" xmlns="http://www.w3.org/2000/svg">
<path d="M15.6071 3.39286H12.2143V2.03571C12.2143 1.49581 11.9998 0.978017 11.618 0.596247C11.2363 0.214476 10.7185 0 10.1786 0H6.10714C5.56724 0 5.04945 0.214476 4.66768 0.596247C4.2859 0.978017 4.07143 1.49581 4.07143 2.03571V3.39286H0.678571C0.498603 3.39286 0.326006 3.46435 0.198749 3.59161C0.0714923 3.71886 0 3.89146 0 4.07143C0 4.2514 0.0714923 4.42399 0.198749 4.55125C0.326006 4.67851 0.498603 4.75 0.678571 4.75H1.35714V16.9643C1.35714 17.5042 1.57162 18.022 1.95339 18.4038C2.33516 18.7855 2.85295 19 3.39286 19H12.8929C13.4328 19 13.9506 18.7855 14.3323 18.4038C14.7141 18.022 14.9286 17.5042 14.9286 16.9643V4.75H15.6071C15.7871 4.75 15.9597 4.67851 16.087 4.55125C16.2142 4.42399 16.2857 4.2514 16.2857 4.07143C16.2857 3.89146 16.2142 3.71886 16.087 3.59161C15.9597 3.46435 15.7871 3.39286 15.6071 3.39286ZM5.42857 2.03571C5.42857 1.85575 5.50006 1.68315 5.62732 1.55589C5.75458 1.42864 5.92717 1.35714 6.10714 1.35714H10.1786C10.3585 1.35714 10.5311 1.42864 10.6584 1.55589C10.7857 1.68315 10.8571 1.85575 10.8571 2.03571V3.39286H5.42857V2.03571ZM13.5714 16.9643C13.5714 17.1443 13.4999 17.3169 13.3727 17.4441C13.2454 17.5714 13.0728 17.6429 12.8929 17.6429H3.39286C3.21289 17.6429 3.04029 17.5714 2.91303 17.4441C2.78578 17.3169 2.71429 17.1443 2.71429 16.9643V4.75H13.5714V16.9643Z" fill="#656565"/>
<path d="M10.1777 7.46387C9.99777 7.46387 9.82517 7.53536 9.69791 7.66262C9.57065 7.78987 9.49916 7.96247 9.49916 8.14244V14.2496C9.49916 14.4296 9.57065 14.6021 9.69791 14.7294C9.82517 14.8567 9.99777 14.9282 10.1777 14.9282C10.3577 14.9282 10.5303 14.8567 10.6576 14.7294C10.7848 14.6021 10.8563 14.4296 10.8563 14.2496V8.14244C10.8563 7.96247 10.7848 7.78987 10.6576 7.66262C10.5303 7.53536 10.3577 7.46387 10.1777 7.46387ZM6.10631 7.46387C5.92634 7.46387 5.75374 7.53536 5.62648 7.66262C5.49923 7.78987 5.42773 7.96247 5.42773 8.14244V14.2496C5.42773 14.4296 5.49923 14.6021 5.62648 14.7294C5.75374 14.8567 5.92634 14.9282 6.10631 14.9282C6.28627 14.9282 6.45887 14.8567 6.58613 14.7294C6.71338 14.6021 6.78488 14.4296 6.78488 14.2496V8.14244C6.78488 7.96247 6.71338 7.78987 6.58613 7.66262C6.45887 7.53536 6.28627 7.46387 6.10631 7.46387Z" fill="#656565"/>
</svg>
