<svg width="247" height="183" viewBox="0 0 247 183" fill="none" xmlns="http://www.w3.org/2000/svg">
<path d="M127.343 183C177.776 183 218.663 142.113 218.663 91.5C218.663 40.8868 177.596 0 127.343 0C76.9103 0 36.0234 40.8868 36.0234 91.5C36.0234 142.113 76.9103 183 127.343 183Z" fill="#D6DCE8"/>
<path d="M230.256 62.508C234.335 62.508 237.641 59.2017 237.641 55.1231C237.641 51.0446 234.335 47.7383 230.256 47.7383C226.178 47.7383 222.872 51.0446 222.872 55.1231C222.872 59.2017 226.178 62.508 230.256 62.508Z" fill="#D6DCE8"/>
<path d="M241.062 33.6921C243.848 33.6921 246.106 31.4341 246.106 28.6488C246.106 25.8634 243.848 23.6055 241.062 23.6055C238.277 23.6055 236.019 25.8634 236.019 28.6488C236.019 31.4341 238.277 33.6921 241.062 33.6921Z" fill="#D6DCE8"/>
<path d="M40.1664 31.5202C42.9517 31.5202 45.2097 29.2622 45.2097 26.4769C45.2097 23.6916 42.9517 21.4336 40.1664 21.4336C37.381 21.4336 35.123 23.6916 35.123 26.4769C35.123 29.2622 37.381 31.5202 40.1664 31.5202Z" fill="#D6DCE8"/>
<path d="M9.36614 128.783C14.5389 128.783 18.7323 124.59 18.7323 119.417C18.7323 114.244 14.5389 110.051 9.36614 110.051C4.19336 110.051 0 114.244 0 119.417C0 124.59 4.19336 128.783 9.36614 128.783Z" fill="#D6DCE8"/>
</svg>
