<svg width="24" height="24" viewBox="0 0 24 24" fill="none" xmlns="http://www.w3.org/2000/svg">
<g clip-path="url(#clip0_1790_3281)">
<path d="M17.992 8.05348C17.6226 7.66394 17.0067 7.64679 16.6165 8.01715L10.4051 13.9079L7.44238 10.866C7.06715 10.481 6.45191 10.4726 6.0666 10.8479C5.68161 11.2228 5.67351 11.8387 6.04841 12.2237L9.68085 15.9531C9.87121 16.1486 10.1242 16.2472 10.3778 16.2472C10.6185 16.2472 10.8591 16.1583 11.0476 15.9803L17.9557 9.42897C18.3455 9.05922 18.362 8.44333 17.992 8.05348Z" fill="black"/>
<path d="M12 0C5.38312 0 0 5.38312 0 12C0 18.6169 5.38312 24 12 24C18.6169 24 24 18.6169 24 12C24 5.38312 18.6169 0 12 0ZM12 22.0541C6.45633 22.0541 1.94592 17.544 1.94592 12C1.94592 6.45633 6.45628 1.94592 12 1.94592C17.544 1.94592 22.0541 6.45628 22.0541 12C22.0541 17.544 17.544 22.0541 12 22.0541Z" fill="black"/>
</g>
<defs>
<clipPath id="clip0_1790_3281">
<rect width="24" height="24" fill="white"/>
</clipPath>
</defs>
</svg>
