<svg width="173" height="183" viewBox="0 0 173 183" fill="none" xmlns="http://www.w3.org/2000/svg">
<path d="M161.706 62.6024C158.99 63.0231 157.843 62.1434 156.275 58.663C155.51 59.3132 154.783 59.9251 153.827 60.7665C153.292 59.5809 152.871 58.5865 152.412 57.5921C151.991 56.5976 151.532 56.4064 150.576 57.1713C149.926 57.7068 148.702 58.2805 148.167 57.9745C147.555 57.6686 147.249 56.4447 147.172 55.565C147.057 54.3411 147.172 53.8056 145.374 53.7674C143.424 53.7291 141.473 52.3523 139.293 51.4726C138.949 53.6526 138.605 55.7945 138.222 57.9745C137.266 58.204 136.31 58.3952 135.354 58.663C132.332 59.4662 130.497 58.8925 128.661 56.2917C127.437 54.5706 126.442 52.6582 125.065 50.3252C127.59 49.675 129.77 48.9865 132.026 48.6041C134.092 48.2599 138.069 45.1619 138.605 43.1348C138.643 42.9436 138.681 42.7523 138.681 42.5993C138.299 40.5723 137.916 38.5834 137.496 36.3269C137.151 36.3269 136.425 36.4416 135.775 36.2886C134.551 36.0592 133.48 35.6384 132.944 34.2616C132.715 33.6879 131.95 33.0759 131.338 32.9229C128.24 32.1962 127.552 31.5843 127.284 28.5628C127.207 27.4154 127.246 26.268 127.284 25.1206C127.284 24.7764 127.322 24.4704 127.322 23.9732C120.17 19.7661 112.329 16.5916 103.992 14.641C103.265 16.6298 102.003 17.739 99.7079 18.045C98.484 18.1979 97.2984 19.4983 96.3422 20.4927C94.5064 22.4816 92.9 24.6234 91.1789 26.7652C88.5781 25.6943 87.622 23.5525 86.704 21.2194C85.5566 18.3127 85.9009 15.5972 87.316 12.9581C87.4307 12.7669 87.622 12.6139 87.8514 12.4609C86.8953 12.5757 85.8626 12.5757 84.8299 12.5757H84.5622C84.7152 12.6904 84.8299 12.8052 84.9064 12.9581C85.1359 13.3024 84.9829 14.2203 84.677 14.5263C83.1853 15.8649 81.579 17.0505 80.0109 18.3127C77.8308 15.6737 76.2244 15.2529 72.7822 16.2474C72.0173 16.4768 70.7169 16.6298 70.3344 16.2091C68.9576 14.7557 67.9631 15.6737 66.8922 16.4003C65.5919 17.28 64.4062 18.2744 63.0293 19.0394C60.964 20.1868 60.7728 24.0879 61.7289 25.5796C61.9967 26.0003 62.9528 26.3445 63.45 26.1915C65.6301 25.6561 67.5807 24.6234 68.7663 22.6346C69.2635 21.7931 69.7225 21.8696 70.6787 21.9461C71.8261 22.0226 73.2029 21.5254 74.1591 20.837C76.2627 19.2689 76.5687 19.1541 78.4045 20.99C78.7487 21.3342 79.0929 21.7931 79.5136 22.0609C80.8905 22.8258 80.8523 23.8202 80.1256 25.0059C79.6284 25.809 79.2842 26.6887 78.787 27.7214C79.5901 27.9126 80.2786 28.0656 81.0435 28.2186C80.9288 29.0983 80.8905 29.9779 80.661 30.7811C79.8579 33.6496 77.869 35.9827 74.6946 33.3819C73.6237 32.5022 72.2468 32.7699 71.5966 33.9938C70.6022 35.9444 68.8046 36.0974 67.1217 36.0209C63.297 35.8297 59.8166 36.9388 56.4891 38.6599C56.1067 38.8512 55.6095 39.1954 55.3035 39.1189C52.9704 38.354 51.5553 40.1133 49.8342 41.0312C48.1513 41.9492 46.4302 42.8288 44.6709 43.5938C43.5617 44.091 42.9115 44.5882 42.8351 46.0416C42.6438 48.6041 41.9936 51.1284 41.4964 53.8439C39.3929 52.926 39.0104 51.1666 38.7809 49.7132C38.2072 46.0416 36.4861 45.4296 33.8471 44.9324C28.9897 44.0145 22.679 46.9977 20.652 51.3196C19.8488 53.0407 19.8488 55.2973 20.04 57.2478C20.193 58.9689 22.2966 59.8486 24.2854 59.1984C25.471 58.816 26.6949 58.7777 26.9627 60.0016C27.1157 60.8048 26.3125 61.8375 25.777 62.7171C25.5475 63.0996 24.9738 63.2908 24.5914 63.5968C23.3675 64.5912 23.291 65.6239 24.5914 66.5418C25.5093 67.192 25.5858 67.7274 25.3181 68.8366C24.1707 73.5027 26.4272 77.1361 31.0933 78.36C32.8909 78.819 34.1531 77.9776 35.3005 76.6389C36.0654 75.721 36.6391 74.3824 38.2072 74.6501C38.6279 74.7266 39.0869 74.8031 39.4311 74.9943C41.6494 76.1035 43.7912 77.4039 46.0478 78.3983C48.1131 79.3162 50.1402 80.0429 51.5553 82.0317C52.129 82.8349 53.2764 83.2939 54.2326 83.6381C58.325 85.2062 61.423 87.9217 63.6413 91.6316C65.0946 94.0794 66.4333 96.6037 67.7719 99.128C68.4604 100.39 69.3018 101.155 70.7934 101.499C73.9679 102.188 76.9894 103.488 79.3989 105.783C81.732 108.001 82.0379 110.181 80.3168 112.935C79.6284 114.082 78.481 114.924 77.7161 116.033C76.7981 117.41 75.7655 118.825 75.3065 120.393C74.1974 123.988 72.285 127.125 69.8372 129.878C68.7663 131.102 66.9305 132.02 65.3241 132.326C62.5321 132.823 61.0022 134.621 59.5871 136.686C58.4015 138.446 56.9863 140.09 56.0684 141.964C54.615 144.871 51.7848 146.095 49.3752 147.778C45.7036 150.302 43.0645 153.668 41.8789 157.837C41.3434 159.711 42.2996 162.006 42.5673 164.071C42.7586 165.524 43.0263 166.978 43.2558 168.546C38.8956 166.863 36.1419 163.727 34.0766 160.017C33.2734 158.563 33.1969 156.689 32.8144 155.006C32.5467 153.783 32.5467 152.482 32.0877 151.373C30.8256 148.352 31.2845 145.292 31.7435 142.27C32.0112 140.511 32.0495 138.866 31.8582 137.03C31.5523 134.43 32.279 131.714 32.5849 129.037C32.7379 127.737 33.0439 126.436 33.1586 125.136C33.2734 123.912 32.8144 122.956 32.1642 121.847C31.4375 120.546 31.361 118.749 31.4375 117.18C31.514 116.186 31.5905 115.689 30.6726 115.039C27.2686 112.667 24.1707 109.531 22.832 105.859C21.1874 101.27 19.8105 96.1065 23.444 91.3639C25.1268 89.1456 26.7714 86.7743 27.7276 84.1735C29.028 80.6548 28.1866 79.0485 25.6623 77.5568C24.0559 76.6389 23.0233 75.262 22.8703 73.388C22.7173 71.4756 21.8376 70.0987 20.4225 68.9131C19.5811 68.2247 19.0838 67.5362 19.6575 66.3123C20.1548 65.1649 19.6958 64.3235 18.3954 63.7115C15.8329 62.5259 13.0791 61.302 12.4672 58.204C12.1612 56.7124 12.1612 54.8001 12.8879 53.5379C16.3301 47.3802 20.6902 41.8344 25.6623 36.8623C27.2304 35.2942 28.875 33.7644 30.5579 32.311C12.3524 47.8009 0.763672 70.8637 0.763672 96.642C0.763672 143.073 38.3984 180.708 84.8299 180.708C103.188 180.708 120.17 174.818 133.977 164.836L134.092 163.841C134.589 162.656 135.048 161.47 135.545 160.284C136.501 158.181 137.419 156.039 138.452 154.012C139.408 152.176 139.14 150.302 138.567 148.581C137.113 144.03 138.949 140.511 141.779 137.298C141.894 137.183 142.009 137.069 142.085 136.916C143.577 135.233 145.222 133.665 145.222 131.255C145.222 129.343 145.107 127.239 144.38 125.518C144.189 125.059 144.036 124.6 143.883 124.141C143.156 121.426 143.692 118.902 144.877 116.377C144.916 116.263 144.992 116.148 145.03 116.033C145.795 114.235 146.025 112.4 145.795 110.564C145.757 110.143 145.68 109.722 145.566 109.302C145.451 108.881 144.763 108.192 144.724 108.192C142.506 109.608 140.976 107.313 139.064 107.198C136.54 107.045 133.977 106.624 131.529 106.969C128.928 107.351 126.557 106.854 124.645 105.439C121.126 102.838 117.837 99.8547 114.548 96.9479C113.936 96.4125 113.63 95.3033 113.515 94.4619C113.133 90.446 114.165 86.6213 115.198 82.7967C115.848 80.4254 116.23 78.1688 115.886 75.6063C115.58 73.082 117.569 71.2461 119.52 69.7928C120.246 69.2573 121.241 69.0278 122.044 68.5689C122.885 68.0717 123.956 67.6509 124.454 66.886C127.475 62.2964 132.179 61.6845 136.96 61.761C140.708 61.8375 144.571 62.0287 148.128 63.0231C150.653 63.7115 152.909 65.6239 155.051 67.2685C156.887 68.6454 158.646 69.678 161.056 69.4103C162.165 69.2956 163.312 69.5633 164.421 69.7163C163.656 67.2685 162.738 64.8972 161.706 62.6024ZM34.7268 59.8869C35.2622 57.7068 37.2128 56.7124 38.6279 57.7833C40.4638 59.1602 42.4526 59.7339 44.7091 59.8104C45.2446 59.8486 45.7418 60.1928 46.2773 60.4223C46.2008 60.69 46.1625 60.9195 46.086 61.1873C42.2996 60.7283 38.5514 60.3076 34.7268 59.8869ZM50.7904 66.733C48.3808 66.5035 46.1243 66.2741 43.6765 66.0446C46.086 64.1705 48.4573 63.0231 51.2493 65.6239C51.0963 66.0063 50.9051 66.4653 50.7904 66.733ZM104.948 24.1644C104.642 24.9294 104.259 26.1915 103.724 26.3062C102.768 26.4975 101.658 26.0768 100.702 25.6561C99.7462 25.2736 98.943 24.5851 98.0633 24.0114C98.1398 23.782 98.2545 23.5142 98.331 23.2848C99.9374 22.6728 101.544 21.9461 103.188 21.5254C103.8 21.3724 104.756 21.8314 105.292 22.3286C105.521 22.6346 105.177 23.5907 104.948 24.1644ZM122.579 38.4305C122.235 37.7803 121.967 37.1683 121.623 36.5181C123.191 35.8297 123.88 34.7588 123.421 33.0377C123.383 32.8847 124.645 32.158 124.76 32.2727C127.131 34.491 130.191 35.9444 131.414 39.4249C132.026 41.146 131.223 41.6814 130.344 42.3699C128.431 43.8232 126.289 43.0201 125.792 40.7253C125.563 39.7691 125.448 38.7747 125.257 37.5125C124.262 37.8185 123.459 38.0862 122.579 38.4305Z" fill="#D6DCE8"/>
<path fill-rule="evenodd" clip-rule="evenodd" d="M86.0806 10.2852L86.0893 10.2852L86.3768 10.2852C87.3955 10.2852 88.4627 10.2852 89.5368 10.3249C95.2302 10.5214 100.771 11.2676 106.118 12.5258C144.306 21.4835 172.714 55.7401 172.714 96.6422C172.714 144.339 134.054 182.999 86.357 182.999C38.6604 182.999 0 144.339 0 96.6422C0 69.8242 12.2074 45.8678 31.3964 30.0367C31.4281 30.0092 31.4601 29.983 31.4922 29.9579C31.5507 29.9121 31.6068 29.8726 31.6588 29.8386C46.4569 17.6736 65.4325 10.3636 86.0806 10.2852ZM31.9185 29.6899C31.9232 29.6875 31.9247 29.6868 31.921 29.6886C31.9207 29.6888 31.9198 29.6893 31.9185 29.6899ZM86.357 14.8666H86.0936C66.5 14.942 48.512 21.8875 34.4945 33.4383C34.4628 33.4658 34.4308 33.4921 34.3988 33.5171C34.3407 33.5624 34.2851 33.6017 34.2336 33.6355C16.1015 48.6322 4.58144 71.2833 4.58144 96.6422C4.58144 141.809 41.1906 178.418 86.357 178.418C131.523 178.418 168.133 141.809 168.133 96.6422C168.133 57.9146 141.235 25.4689 105.072 16.9861L105.07 16.9858C100.016 15.7965 94.7727 15.0896 89.3761 14.9035L89.3702 14.9033C88.387 14.8669 87.3967 14.8666 86.357 14.8666Z" fill="#D5DDEA"/>
<path d="M126.246 0C134.455 0 141.094 6.77896 141.094 15.1611C141.094 21.8484 131.674 35.0857 127.816 40.2158C127.008 41.315 125.393 41.315 124.586 40.2158C120.728 35.0857 111.307 21.8484 111.307 15.1611C111.397 6.77896 118.036 0 126.246 0Z" fill="url(#paint0_linear_1856_3040)"/>
<path d="M125.87 21.1805C129.16 21.1805 131.827 18.5133 131.827 15.2231C131.827 11.9329 129.16 9.26562 125.87 9.26562C122.579 9.26562 119.912 11.9329 119.912 15.2231C119.912 18.5133 122.579 21.1805 125.87 21.1805Z" fill="white"/>
<path fill-rule="evenodd" clip-rule="evenodd" d="M117.751 45.9442C117.794 47.7717 116.346 49.2873 114.519 49.3295C114.316 49.3341 114.114 49.3397 113.912 49.3461C112.085 49.4042 110.557 47.9702 110.499 46.1432C110.441 44.3162 111.875 42.7881 113.702 42.7301C113.923 42.723 114.144 42.717 114.366 42.7118C116.194 42.6696 117.709 44.1168 117.751 45.9442ZM122.598 46.2085C122.829 44.3952 124.487 43.1128 126.3 43.344C126.411 43.3581 126.522 43.3724 126.633 43.387C128.445 43.6255 129.721 45.2879 129.482 47.1002C129.244 48.9125 127.581 50.1883 125.769 49.9499C125.667 49.9364 125.565 49.9232 125.463 49.9102C123.65 49.679 122.367 48.0217 122.598 46.2085ZM105.681 46.6784C106.03 48.4727 104.858 50.2101 103.064 50.559C102.865 50.5978 102.666 50.6374 102.468 50.6778C100.677 51.0429 98.9286 49.887 98.5634 48.096C98.1982 46.3049 99.3541 44.557 101.145 44.1918C101.363 44.1474 101.581 44.1039 101.801 44.0613C103.595 43.7124 105.332 44.8841 105.681 46.6784ZM93.9072 49.4494C94.5587 51.1573 93.7023 53.0699 91.9944 53.7213C91.805 53.7936 91.6162 53.8665 91.4281 53.9402C89.7262 54.6071 87.8059 53.768 87.1391 52.066C86.4722 50.3641 87.3113 48.4439 89.0133 47.777C89.2199 47.6961 89.4273 47.6159 89.6353 47.5365C91.3432 46.8851 93.2558 47.7415 93.9072 49.4494ZM82.7822 54.1946C83.7126 55.7681 83.1912 57.7977 81.6178 58.7281C81.444 58.8308 81.2711 58.9341 81.0989 59.0379C79.5337 59.982 77.4995 59.4784 76.5554 57.9132C75.6114 56.348 76.1149 54.3138 77.6801 53.3697C77.8688 53.2559 78.0584 53.1427 78.2488 53.0301C79.8222 52.0998 81.8519 52.6212 82.7822 54.1946ZM72.6091 60.7408C73.7878 62.1379 73.6107 64.226 72.2136 65.4046C72.0586 65.5354 71.9045 65.6666 71.7515 65.798C70.3648 66.989 68.2752 66.8303 67.0843 65.4437C65.8933 64.057 66.0519 61.9675 67.4386 60.7765C67.6064 60.6324 67.7753 60.4886 67.9452 60.3452C69.3424 59.1666 71.4304 59.3436 72.6091 60.7408ZM63.6658 68.8879C65.0702 70.0579 65.2602 72.1448 64.0902 73.5492C63.9618 73.7033 63.8348 73.8573 63.7092 74.0112C62.5532 75.4272 60.4683 75.638 59.0523 74.482C57.6363 73.326 57.4256 71.2411 58.5815 69.8251C58.7211 69.6542 58.862 69.4833 59.0044 69.3124C60.1744 67.908 62.2613 67.7179 63.6658 68.8879ZM56.3293 78.511C57.9643 79.3282 58.6274 81.3161 57.8102 82.9512C57.7675 83.0368 57.7253 83.1221 57.6836 83.207C56.8796 84.8486 54.8971 85.5276 53.2555 84.7235C51.6139 83.9195 50.935 81.937 51.739 80.2954C51.7884 80.1945 51.8385 80.0933 51.8891 79.992C52.7063 78.3569 54.6942 77.6939 56.3293 78.511Z" fill="#AAB2C5"/>
<path d="M51.8013 13.9023C64.2066 13.9023 74.2394 23.7428 74.2394 35.9103C74.2394 45.6178 60.0037 64.8332 54.1739 72.2801C52.9537 73.8758 50.5133 73.8758 49.2931 72.2801C43.4632 64.8332 29.2275 45.6178 29.2275 35.9103C29.3631 23.7428 39.3959 13.9023 51.8013 13.9023Z" fill="url(#paint1_linear_1856_3040)"/>
<path d="M51.7322 45.013C56.4847 45.013 60.3374 41.0121 60.3374 36.0768C60.3374 31.1415 56.4847 27.1406 51.7322 27.1406C46.9796 27.1406 43.127 31.1415 43.127 36.0768C43.127 41.0121 46.9796 45.013 51.7322 45.013Z" fill="white"/>
<defs>
<linearGradient id="paint0_linear_1856_3040" x1="126.138" y1="2.68073" x2="132.301" y2="20.9458" gradientUnits="userSpaceOnUse">
<stop stop-color="#989FB0"/>
<stop offset="1" stop-color="#AAB2C5"/>
</linearGradient>
<linearGradient id="paint1_linear_1856_3040" x1="29.2069" y1="43.6961" x2="74.2476" y2="43.6961" gradientUnits="userSpaceOnUse">
<stop stop-color="#B0BACC"/>
<stop offset="1" stop-color="#969EAE"/>
</linearGradient>
</defs>
</svg>
