<svg width="247" height="216" viewBox="0 0 247 216" fill="none" xmlns="http://www.w3.org/2000/svg">
<path d="M127.343 187.152C177.776 187.152 218.663 146.266 218.663 95.6524C218.663 45.0392 177.596 4.15234 127.343 4.15234C76.9103 4.15234 36.0234 45.0392 36.0234 95.6524C36.0234 146.266 76.9103 187.152 127.343 187.152Z" fill="#D6DCE8"/>
<path d="M230.256 66.6603C234.335 66.6603 237.641 63.354 237.641 59.2755C237.641 55.1969 234.335 51.8906 230.256 51.8906C226.178 51.8906 222.872 55.1969 222.872 59.2755C222.872 63.354 226.178 66.6603 230.256 66.6603Z" fill="#D6DCE8"/>
<path d="M241.062 37.8444C243.848 37.8444 246.106 35.5865 246.106 32.8011C246.106 30.0158 243.848 27.7578 241.062 27.7578C238.277 27.7578 236.019 30.0158 236.019 32.8011C236.019 35.5865 238.277 37.8444 241.062 37.8444Z" fill="#D6DCE8"/>
<path d="M40.1664 35.6726C42.9517 35.6726 45.2097 33.4146 45.2097 30.6292C45.2097 27.8439 42.9517 25.5859 40.1664 25.5859C37.381 25.5859 35.123 27.8439 35.123 30.6292C35.123 33.4146 37.381 35.6726 40.1664 35.6726Z" fill="#D6DCE8"/>
<path d="M9.36614 132.935C14.5389 132.935 18.7323 128.742 18.7323 123.569C18.7323 118.396 14.5389 114.203 9.36614 114.203C4.19336 114.203 0 118.396 0 123.569C0 128.742 4.19336 132.935 9.36614 132.935Z" fill="#D6DCE8"/>
<g filter="url(#filter0_d_1856_3124)">
<path d="M201.686 182.051H48.9112C45.9351 182.051 43.4932 179.609 43.4932 176.633V139.317C43.4932 136.34 45.9351 133.898 48.9112 133.898H201.686C204.662 133.898 207.104 136.34 207.104 139.317V176.633C207.104 179.609 204.662 182.051 201.686 182.051Z" fill="url(#paint0_linear_1856_3124)"/>
</g>
<path d="M176.35 151.982H91.2638C89.4323 151.982 87.9824 150.869 87.9824 149.464C87.9824 148.058 89.4323 146.945 91.2638 146.945H176.35C178.182 146.945 179.632 148.058 179.632 149.464C179.632 150.869 178.182 151.982 176.35 151.982Z" fill="#D6DCE8"/>
<path d="M145.826 167.322H91.2638C89.4323 167.322 87.9824 166.209 87.9824 164.803C87.9824 163.398 89.4323 162.285 91.2638 162.285H145.826C147.658 162.285 149.107 163.398 149.107 164.803C149.107 166.209 147.658 167.322 145.826 167.322Z" fill="#D6DCE8"/>
<path d="M66.0809 171.518C73.5828 171.518 79.6642 165.437 79.6642 157.935C79.6642 150.433 73.5828 144.352 66.0809 144.352C58.579 144.352 52.4976 150.433 52.4976 157.935C52.4976 165.437 58.579 171.518 66.0809 171.518Z" fill="url(#paint1_linear_1856_3124)"/>
<g filter="url(#filter1_d_1856_3124)">
<path d="M206.82 59.1521H54.046C51.0699 59.1521 48.6279 56.7102 48.6279 53.7341V16.4181C48.6279 13.4419 51.0699 11 54.046 11H206.82C209.796 11 212.238 13.4419 212.238 16.4181V53.7341C212.238 56.7102 209.796 59.1521 206.82 59.1521Z" fill="url(#paint2_linear_1856_3124)"/>
</g>
<path d="M181.485 29.0834H96.3986C94.5671 29.0834 93.1172 27.9707 93.1172 26.5651C93.1172 25.1596 94.5671 24.0469 96.3986 24.0469H181.485C183.317 24.0469 184.767 25.1596 184.767 26.5651C184.767 27.9707 183.317 29.0834 181.485 29.0834Z" fill="#D6DCE8"/>
<path d="M150.961 44.4232H96.3986C94.5671 44.4232 93.1172 43.3105 93.1172 41.905C93.1172 40.4994 94.5671 39.3867 96.3986 39.3867H150.961C152.792 39.3867 154.242 40.4994 154.242 41.905C154.242 43.3105 152.792 44.4232 150.961 44.4232Z" fill="#D6DCE8"/>
<path d="M71.2157 48.6198C78.7175 48.6198 84.799 42.5383 84.799 35.0365C84.799 27.5346 78.7175 21.4531 71.2157 21.4531C63.7138 21.4531 57.6323 27.5346 57.6323 35.0365C57.6323 42.5383 63.7138 48.6198 71.2157 48.6198Z" fill="url(#paint3_linear_1856_3124)"/>
<g filter="url(#filter2_d_1856_3124)">
<path d="M183.371 120.312H30.5206C27.5445 120.312 25.1025 117.87 25.1025 114.894V77.5782C25.1025 74.6021 27.5445 72.1602 30.5206 72.1602H183.295C186.271 72.1602 188.713 74.6021 188.713 77.5782V114.894C188.789 117.947 186.347 120.312 183.371 120.312Z" fill="url(#paint4_linear_1856_3124)"/>
</g>
<path d="M47.7674 109.858C55.2693 109.858 61.3507 103.777 61.3507 96.2747C61.3507 88.7729 55.2693 82.6914 47.7674 82.6914C40.2655 82.6914 34.1841 88.7729 34.1841 96.2747C34.1841 103.777 40.2655 109.858 47.7674 109.858Z" fill="url(#paint5_linear_1856_3124)"/>
<path d="M158.037 90.2475H72.9503C71.1189 90.2475 69.6689 89.1347 69.6689 87.7292C69.6689 86.3237 71.1189 85.2109 72.9503 85.2109H158.037C159.868 85.2109 161.318 86.3237 161.318 87.7292C161.318 89.1347 159.792 90.2475 158.037 90.2475Z" fill="#D6DCE8"/>
<path d="M127.513 105.662H72.9503C71.1189 105.662 69.6689 104.549 69.6689 103.143C69.6689 101.738 71.1189 100.625 72.9503 100.625H127.513C129.344 100.625 130.794 101.738 130.794 103.143C130.718 104.549 129.268 105.662 127.513 105.662Z" fill="#D6DCE8"/>
<defs>
<filter id="filter0_d_1856_3124" x="21.4932" y="122.898" width="207.61" height="92.1523" filterUnits="userSpaceOnUse" color-interpolation-filters="sRGB">
<feFlood flood-opacity="0" result="BackgroundImageFix"/>
<feColorMatrix in="SourceAlpha" type="matrix" values="0 0 0 0 0 0 0 0 0 0 0 0 0 0 0 0 0 0 127 0" result="hardAlpha"/>
<feOffset dy="11"/>
<feGaussianBlur stdDeviation="11"/>
<feColorMatrix type="matrix" values="0 0 0 0 0.397708 0 0 0 0 0.47749 0 0 0 0 0.575 0 0 0 0.27 0"/>
<feBlend mode="normal" in2="BackgroundImageFix" result="effect1_dropShadow_1856_3124"/>
<feBlend mode="normal" in="SourceGraphic" in2="effect1_dropShadow_1856_3124" result="shape"/>
</filter>
<filter id="filter1_d_1856_3124" x="26.6279" y="0" width="207.61" height="92.1523" filterUnits="userSpaceOnUse" color-interpolation-filters="sRGB">
<feFlood flood-opacity="0" result="BackgroundImageFix"/>
<feColorMatrix in="SourceAlpha" type="matrix" values="0 0 0 0 0 0 0 0 0 0 0 0 0 0 0 0 0 0 127 0" result="hardAlpha"/>
<feOffset dy="11"/>
<feGaussianBlur stdDeviation="11"/>
<feColorMatrix type="matrix" values="0 0 0 0 0.397708 0 0 0 0 0.47749 0 0 0 0 0.575 0 0 0 0.27 0"/>
<feBlend mode="normal" in2="BackgroundImageFix" result="effect1_dropShadow_1856_3124"/>
<feBlend mode="normal" in="SourceGraphic" in2="effect1_dropShadow_1856_3124" result="shape"/>
</filter>
<filter id="filter2_d_1856_3124" x="3.10254" y="61.1602" width="207.612" height="92.1523" filterUnits="userSpaceOnUse" color-interpolation-filters="sRGB">
<feFlood flood-opacity="0" result="BackgroundImageFix"/>
<feColorMatrix in="SourceAlpha" type="matrix" values="0 0 0 0 0 0 0 0 0 0 0 0 0 0 0 0 0 0 127 0" result="hardAlpha"/>
<feOffset dy="11"/>
<feGaussianBlur stdDeviation="11"/>
<feColorMatrix type="matrix" values="0 0 0 0 0.397708 0 0 0 0 0.47749 0 0 0 0 0.575 0 0 0 0.27 0"/>
<feBlend mode="normal" in2="BackgroundImageFix" result="effect1_dropShadow_1856_3124"/>
<feBlend mode="normal" in="SourceGraphic" in2="effect1_dropShadow_1856_3124" result="shape"/>
</filter>
<linearGradient id="paint0_linear_1856_3124" x1="125.245" y1="132.785" x2="125.245" y2="182.57" gradientUnits="userSpaceOnUse">
<stop stop-color="#FDFEFF"/>
<stop offset="0.9964" stop-color="#ECF0F5"/>
</linearGradient>
<linearGradient id="paint1_linear_1856_3124" x1="66.0237" y1="146.126" x2="69.1349" y2="158.831" gradientUnits="userSpaceOnUse">
<stop stop-color="#989FB0"/>
<stop offset="1" stop-color="#AAB2C5"/>
</linearGradient>
<linearGradient id="paint2_linear_1856_3124" x1="130.38" y1="9.8862" x2="130.38" y2="59.6712" gradientUnits="userSpaceOnUse">
<stop stop-color="#FDFEFF"/>
<stop offset="0.9964" stop-color="#ECF0F5"/>
</linearGradient>
<linearGradient id="paint3_linear_1856_3124" x1="71.1585" y1="23.2276" x2="74.2697" y2="35.9327" gradientUnits="userSpaceOnUse">
<stop stop-color="#989FB0"/>
<stop offset="1" stop-color="#AAB2C5"/>
</linearGradient>
<linearGradient id="paint4_linear_1856_3124" x1="106.855" y1="71.0464" x2="106.855" y2="120.831" gradientUnits="userSpaceOnUse">
<stop stop-color="#FDFEFF"/>
<stop offset="0.9964" stop-color="#ECF0F5"/>
</linearGradient>
<linearGradient id="paint5_linear_1856_3124" x1="47.7102" y1="84.4659" x2="50.8215" y2="97.171" gradientUnits="userSpaceOnUse">
<stop stop-color="#989FB0"/>
<stop offset="1" stop-color="#AAB2C5"/>
</linearGradient>
</defs>
</svg>
