<svg width="128" height="113" viewBox="0 0 128 113" fill="none" xmlns="http://www.w3.org/2000/svg">
<path d="M65.0041 110.027C93.3041 110.027 116.304 86.9266 116.304 58.4266C116.304 29.9266 93.3041 6.72656 65.0041 6.72656C36.7041 6.72656 13.7041 29.8266 13.7041 58.3266C13.7041 86.8266 36.7041 110.027 65.0041 110.027Z" fill="#D6DCE8"/>
<path d="M102.804 15.4258L121.104 43.5258L121.404 43.8258L65.6045 112.526L10.1045 43.8258L10.6045 43.5258L28.6045 15.4258H102.804Z" fill="white"/>
<path d="M84.8045 43.5258L65.6045 112.526L47.6045 43.5258L65.6045 15.4258L84.8045 43.5258Z" fill="#E7EAF4"/>
<path d="M121.304 43.8258L65.6045 112.526L84.8045 43.5258L102.804 15.4258L121.304 43.8258Z" fill="#DBDFEC"/>
<path d="M10.6045 43.5258L28.6045 15.4258L47.6045 43.5258H10.6045Z" fill="#F1F3FA"/>
<path d="M42.7047 36.4281L47.6047 34.9281C48.0047 34.8281 48.0047 34.3281 47.6047 34.2281L42.7047 32.7281C42.6047 32.7281 42.5047 32.6281 42.4047 32.4281L41.0047 27.6281C40.9047 27.2281 40.4047 27.2281 40.3047 27.6281L38.8047 32.5281C38.8047 32.6281 38.7047 32.7281 38.5047 32.8281L33.6047 34.3281C33.2047 34.4281 33.2047 34.9281 33.6047 35.0281L38.5047 36.5281C38.6047 36.5281 38.7047 36.6281 38.8047 36.8281L40.3047 41.7281C40.4047 42.1281 40.9047 42.1281 41.0047 41.7281L42.5047 36.8281C42.5047 36.5281 42.6047 36.4281 42.7047 36.4281Z" fill="url(#paint0_linear_1883_3387)"/>
<path d="M8.10405 55.0259L11.5041 52.2259C11.7041 52.0259 11.6041 51.6259 11.3041 51.6259L6.90405 52.0259C6.80405 52.0259 6.70405 52.0259 6.60405 51.9259L3.80405 48.5259C3.60405 48.3259 3.20405 48.4259 3.20405 48.7259L3.60405 53.1259C3.60405 53.2259 3.60405 53.3259 3.50405 53.4259L0.104052 56.2259C-0.0959482 56.4259 0.00405183 56.8259 0.304052 56.8259L4.70405 56.4259C4.80405 56.4259 4.90405 56.4259 5.00405 56.5259L7.80405 59.9259C8.00405 60.1259 8.40405 60.0259 8.40405 59.7259L8.00405 55.3259C7.90405 55.2259 8.00405 55.1259 8.10405 55.0259Z" fill="url(#paint1_linear_1883_3387)"/>
<path d="M41.6042 4.82593L43.9042 3.02593C44.1042 2.92593 44.0042 2.62593 43.7042 2.62593L40.8042 2.92593C40.7042 2.92593 40.7042 2.92593 40.6042 2.82593L38.8042 0.525927C38.7042 0.325927 38.4042 0.425927 38.4042 0.725927L38.7042 3.62593C38.7042 3.72593 38.7042 3.72593 38.6042 3.82593L36.3042 5.62593C36.1042 5.72593 36.2042 6.02593 36.5042 6.02593L39.4042 5.72593C39.5042 5.72593 39.5042 5.72593 39.6042 5.82593L41.4042 8.12593C41.5042 8.32593 41.8042 8.22593 41.8042 7.92593L41.5042 5.02593C41.5042 4.92593 41.5042 4.82593 41.6042 4.82593Z" fill="url(#paint2_linear_1883_3387)"/>
<path d="M116.305 93.6257L120.305 95.7257C120.605 95.9257 120.905 95.5257 120.705 95.2257L118.505 91.2257C118.405 91.1257 118.405 91.0257 118.505 90.9257L120.605 86.9257C120.805 86.6257 120.405 86.3257 120.105 86.5257L116.105 88.7257C116.005 88.8257 115.905 88.8257 115.805 88.7257L111.805 86.6257C111.505 86.4257 111.205 86.8257 111.405 87.1257L113.605 91.1257C113.705 91.2257 113.705 91.3257 113.605 91.4257L111.505 95.4257C111.305 95.7257 111.705 96.0257 112.005 95.8257L116.005 93.6257C116.105 93.6257 116.205 93.6257 116.305 93.6257Z" fill="url(#paint3_linear_1883_3387)"/>
<path d="M32.5038 87.9285L35.6038 89.5285C35.8038 89.6285 36.1038 89.4285 35.9038 89.2285L34.2038 86.2285C34.2038 86.1285 34.2038 86.0285 34.2038 86.0285L35.8038 82.9285C35.9038 82.7285 35.7038 82.4285 35.5038 82.6285L32.5038 84.3285C32.4038 84.3285 32.3038 84.3285 32.3038 84.3285L29.2038 82.7285C29.0038 82.6285 28.7038 82.8285 28.9038 83.0285L30.6038 86.0285C30.6038 86.1285 30.6038 86.2285 30.6038 86.2285L29.0038 89.3285C28.9038 89.5285 29.1038 89.8285 29.3038 89.6285L32.3038 87.9285C32.4038 87.9285 32.5038 87.9285 32.5038 87.9285Z" fill="url(#paint4_linear_1883_3387)"/>
<path d="M30.4042 110.43L33.4042 111.93C33.6042 112.03 33.9042 111.83 33.7042 111.63L32.0042 108.73C32.0042 108.63 32.0042 108.53 32.0042 108.53L33.5042 105.53C33.6042 105.33 33.4042 105.03 33.2042 105.23L30.3042 106.83C30.2042 106.83 30.1042 106.83 30.1042 106.83L27.1042 105.33C26.9042 105.23 26.6042 105.43 26.8042 105.63L28.5042 108.53C28.5042 108.63 28.5042 108.73 28.5042 108.73L27.0042 111.73C26.9042 111.93 27.1042 112.23 27.3042 112.03L30.2042 110.33C30.3042 110.43 30.4042 110.43 30.4042 110.43Z" fill="url(#paint5_linear_1883_3387)"/>
<path d="M87.3043 5.2266L90.3043 6.7266C90.5043 6.8266 90.7043 6.6266 90.6043 6.4266L89.0043 3.5266C89.0043 3.4266 89.0043 3.3266 89.0043 3.3266L90.5043 0.426599C90.6043 0.226599 90.4043 0.0265986 90.2043 0.126599L87.3043 1.7266C87.2043 1.7266 87.1043 1.7266 87.1043 1.7266L84.0043 0.0265986C83.8043 -0.0734014 83.6043 0.126599 83.7043 0.326599L85.3043 3.2266C85.3043 3.3266 85.3043 3.4266 85.3043 3.4266L83.8043 6.4266C83.7043 6.6266 83.9043 6.8266 84.1043 6.7266L87.0043 5.2266C87.1043 5.1266 87.2043 5.1266 87.3043 5.2266Z" fill="url(#paint6_linear_1883_3387)"/>
<path d="M121.305 43.8258L84.8047 43.5258L102.805 15.4258L121.305 43.8258Z" fill="#F1F3FA"/>
<path d="M84.8045 43.5258H47.6045L65.6045 15.4258L84.8045 43.5258Z" fill="#F1F3FA"/>
<path d="M68.5041 17.3258L74.1041 15.6258C74.5041 15.5258 74.5041 14.9258 74.1041 14.8258L68.5041 13.1258C68.4041 13.1258 68.2041 13.0258 68.2041 12.8258L66.5041 7.22578C66.4041 6.82578 65.8041 6.82578 65.7041 7.22578L64.0041 12.8258C64.0041 12.9258 63.9041 13.1258 63.7041 13.1258L58.0041 14.8258C57.6041 14.9258 57.6041 15.5258 58.0041 15.6258L63.6041 17.3258C63.7041 17.3258 63.9041 17.4258 63.9041 17.6258L65.6041 23.2258C65.7041 23.6258 66.3041 23.6258 66.4041 23.2258L68.1041 17.6258C68.2041 17.5258 68.3041 17.4258 68.5041 17.3258Z" fill="url(#paint7_linear_1883_3387)"/>
<path d="M123.004 44.6266L127.404 43.3266C127.704 43.2266 127.704 42.7266 127.404 42.7266L123.004 41.4266C122.904 41.4266 122.804 41.3266 122.804 41.2266L121.504 36.8266C121.404 36.5266 120.904 36.5266 120.904 36.8266L119.604 41.2266C119.604 41.3266 119.504 41.4266 119.404 41.4266L115.004 42.7266C114.704 42.8266 114.704 43.3266 115.004 43.3266L119.404 44.6266C119.504 44.6266 119.604 44.7266 119.604 44.8266L120.904 49.2266C121.004 49.5266 121.504 49.5266 121.504 49.2266L122.804 44.8266C122.804 44.7266 122.904 44.6266 123.004 44.6266Z" fill="url(#paint8_linear_1883_3387)"/>
<defs>
<linearGradient id="paint0_linear_1883_3387" x1="40.5739" y1="28.2883" x2="42.2677" y2="35.1577" gradientUnits="userSpaceOnUse">
<stop stop-color="#989FB0"/>
<stop offset="1" stop-color="#AAB2C5"/>
</linearGradient>
<linearGradient id="paint1_linear_1883_3387" x1="5.77961" y1="49.1801" x2="7.10902" y2="54.6089" gradientUnits="userSpaceOnUse">
<stop stop-color="#989FB0"/>
<stop offset="1" stop-color="#AAB2C5"/>
</linearGradient>
<linearGradient id="paint2_linear_1883_3387" x1="40.0878" y1="0.931897" x2="40.982" y2="4.58352" gradientUnits="userSpaceOnUse">
<stop stop-color="#989FB0"/>
<stop offset="1" stop-color="#AAB2C5"/>
</linearGradient>
<linearGradient id="paint3_linear_1883_3387" x1="116.035" y1="87.0769" x2="117.115" y2="91.4868" gradientUnits="userSpaceOnUse">
<stop stop-color="#989FB0"/>
<stop offset="1" stop-color="#AAB2C5"/>
</linearGradient>
<linearGradient id="paint4_linear_1883_3387" x1="32.3888" y1="83.0284" x2="33.2056" y2="86.3637" gradientUnits="userSpaceOnUse">
<stop stop-color="#989FB0"/>
<stop offset="1" stop-color="#AAB2C5"/>
</linearGradient>
<linearGradient id="paint5_linear_1883_3387" x1="30.2394" y1="105.617" x2="31.0233" y2="108.864" gradientUnits="userSpaceOnUse">
<stop stop-color="#989FB0"/>
<stop offset="1" stop-color="#AAB2C5"/>
</linearGradient>
<linearGradient id="paint6_linear_1883_3387" x1="87.1397" y1="0.441116" x2="87.8933" y2="3.60955" gradientUnits="userSpaceOnUse">
<stop stop-color="#989FB0"/>
<stop offset="1" stop-color="#AAB2C5"/>
</linearGradient>
<linearGradient id="paint7_linear_1883_3387" x1="66.0189" y1="8.01009" x2="67.9099" y2="15.7787" gradientUnits="userSpaceOnUse">
<stop stop-color="#989FB0"/>
<stop offset="1" stop-color="#AAB2C5"/>
</linearGradient>
<linearGradient id="paint8_linear_1883_3387" x1="121.177" y1="37.4409" x2="122.649" y2="43.4505" gradientUnits="userSpaceOnUse">
<stop stop-color="#989FB0"/>
<stop offset="1" stop-color="#AAB2C5"/>
</linearGradient>
</defs>
</svg>
